<svg width="22" height="22" viewBox="0 0 22 22" fill="none" xmlns="http://www.w3.org/2000/svg">
<path d="M11.0003 20.9999C16.5233 20.9999 21.0003 16.5229 21.0003 10.9999C21.0003 5.47688 16.5233 0.999878 11.0003 0.999878C5.47731 0.999878 1.00031 5.47688 1.00031 10.9999C1.00031 16.5229 5.47731 20.9999 11.0003 20.9999Z" stroke="#F0F3F5" stroke-width="2" stroke-linecap="round" stroke-linejoin="round"/>
<path d="M11 14C11.7956 14 12.5587 13.6839 13.1213 13.1213C13.6839 12.5587 14 11.7956 14 11C14 10.2044 13.6839 9.44129 13.1213 8.87868C12.5587 8.31607 11.7956 8 11 8C10.2044 8 9.44129 8.31607 8.87868 8.87868C8.31607 9.44129 8 10.2044 8 11C8 11.7956 8.31607 12.5587 8.87868 13.1213C9.44129 13.6839 10.2044 14 11 14V14Z" stroke="#F0F3F5" stroke-width="2" stroke-linecap="round" stroke-linejoin="round"/>
<path d="M1.00031 11H8.00031M14.0003 11H21.0003" stroke="#F0F3F5" stroke-width="2"/>
</svg>
