<svg width="24" height="24" viewBox="0 0 24 24" fill="none" xmlns="http://www.w3.org/2000/svg">
<path d="M12.0003 21.9999C17.5233 21.9999 22.0003 17.5229 22.0003 11.9999C22.0003 6.47688 17.5233 1.99988 12.0003 1.99988C6.47731 1.99988 2.00031 6.47688 2.00031 11.9999C2.00031 17.5229 6.47731 21.9999 12.0003 21.9999Z" stroke="#30332E" stroke-width="2" stroke-linecap="round" stroke-linejoin="round"/>
<path d="M12 15C12.7956 15 13.5587 14.6839 14.1213 14.1213C14.6839 13.5587 15 12.7956 15 12C15 11.2044 14.6839 10.4413 14.1213 9.87868C13.5587 9.31607 12.7956 9 12 9C11.2044 9 10.4413 9.31607 9.87868 9.87868C9.31607 10.4413 9 11.2044 9 12C9 12.7956 9.31607 13.5587 9.87868 14.1213C10.4413 14.6839 11.2044 15 12 15V15Z" stroke="#30332E" stroke-width="2" stroke-linecap="round" stroke-linejoin="round"/>
<path d="M2.00031 12H9.00031M15.0003 12H22.0003" stroke="#30332E" stroke-width="2"/>
</svg>
